<svg width="21" height="20" viewBox="0 0 21 20" fill="#242424" xmlns="http://www.w3.org/2000/svg">
<path d="M14.5 7.5C14.5 8.32843 13.8284 9 13 9C12.1716 9 11.5 8.32843 11.5 7.5C11.5 6.67157 12.1716 6 13 6C13.8284 6 14.5 6.67157 14.5 7.5ZM13.5 7.5C13.5 7.22386 13.2761 7 13 7C12.7239 7 12.5 7.22386 12.5 7.5C12.5 7.77614 12.7239 8 13 8C13.2761 8 13.5 7.77614 13.5 7.5ZM3.5 6C3.5 4.34315 4.84315 3 6.5 3H14.5C16.1569 3 17.5 4.34315 17.5 6V14C17.5 15.6569 16.1569 17 14.5 17H6.5C4.84315 17 3.5 15.6569 3.5 14V6ZM6.5 4C5.39543 4 4.5 4.89543 4.5 6V14C4.5 14.3726 4.60191 14.7215 4.77937 15.0201L9.44868 10.432C10.0323 9.85859 10.9677 9.85859 11.5513 10.432L16.2206 15.0201C16.3981 14.7215 16.5 14.3726 16.5 14V6C16.5 4.89543 15.6046 4 14.5 4H6.5ZM6.5 16H14.5C14.8692 16 15.2149 15.9 15.5118 15.7256L10.8504 11.1453C10.6559 10.9542 10.3441 10.9542 10.1496 11.1453L5.48824 15.7256C5.78505 15.9 6.13085 16 6.5 16Z"/>
</svg>