<svg width="67" height="48" viewBox="0 0 67 48" fill="none" xmlns="http://www.w3.org/2000/svg">
<g clip-path="url(#clip0_35_3156)">
<path d="M0 0H67V48H0V0Z" fill="#6F8DD7"/>
<path d="M0 0H67V48H0V0Z" fill="url(#paint0_radial_35_3156)" fill-opacity="0.8"/>
<path d="M0 0H67V48H0V0Z" fill="url(#paint1_radial_35_3156)" fill-opacity="0.8"/>
<path d="M59.5 13.9006C65.5208 13.9006 67 16.9006 67 16.9006V47.4006H0V15.9004C4.5 15 8 11.0354 13 12.4001C18.4999 13.9012 26 19.9006 32.5 19.9006C45 19.9006 52.5 13.9006 59.5 13.9006Z" fill="url(#paint2_linear_35_3156)"/>
<path d="M49.5 24.5C57.9 26.9 63.1667 28.1667 67 28.5V48H0V29.5C2.66667 29.1667 2.55222 28.7843 8.5 27C18.5 24 22.5 18 29.5 18C37.5 18 39 21.5 49.5 24.5Z" fill="url(#paint3_linear_35_3156)"/>
<path d="M53 29C60.6 29 63.8333 32 67 33.5V47.5H2.21605C2.13038 47.6579 1.17209 47.8504 0.544045 47.5H0C0.161292 47.4785 0.312173 47.4598 0.453157 47.4438C0.187305 47.2617 0 46.9645 0 46.5C19 45.5 22 41.8889 29 38C35.3 34.5 43.5 29 53 29Z" fill="url(#paint4_linear_35_3156)"/>
<rect x="8" y="44" width="52" height="39" rx="4" fill="white"/>
<rect x="8" y="44" width="52" height="39" rx="4" fill="#2169EB" fill-opacity="0.3"/>
<rect x="15" y="21" width="38" height="5" rx="2.5" fill="white"/>
</g>
<defs>
<radialGradient id="paint0_radial_35_3156" cx="0" cy="0" r="1" gradientUnits="userSpaceOnUse" gradientTransform="translate(33 14.2979) rotate(90) scale(17.3617 71.8686)">
<stop offset="0.184256" stop-color="#D9AFC2"/>
<stop offset="1" stop-color="#6F8DD7" stop-opacity="0"/>
</radialGradient>
<radialGradient id="paint1_radial_35_3156" cx="0" cy="0" r="1" gradientUnits="userSpaceOnUse" gradientTransform="translate(33 15.8298) rotate(90) scale(15.8298 54.8635)">
<stop offset="0.04" stop-color="#F5E4DA"/>
<stop offset="0.588096" stop-color="#BD8C95" stop-opacity="0"/>
</radialGradient>
<linearGradient id="paint2_linear_35_3156" x1="33.5" y1="2.49998" x2="33.5" y2="32" gradientUnits="userSpaceOnUse">
<stop offset="0.2" stop-color="#5365A3"/>
<stop offset="0.995688" stop-color="#5374C3"/>
</linearGradient>
<linearGradient id="paint3_linear_35_3156" x1="33" y1="13.0996" x2="39.5" y2="51.5996" gradientUnits="userSpaceOnUse">
<stop offset="0.223525" stop-color="#4C5F9E"/>
<stop offset="0.582944" stop-color="#5575C3"/>
</linearGradient>
<linearGradient id="paint4_linear_35_3156" x1="52" y1="28.5" x2="52" y2="51.5" gradientUnits="userSpaceOnUse">
<stop offset="0.0897799" stop-color="#4C5F9E"/>
<stop offset="0.674773" stop-color="#5474C2"/>
</linearGradient>
<clipPath id="clip0_35_3156">
<rect width="67" height="48" rx="4" fill="white"/>
</clipPath>
</defs>
</svg>